<svg width="67" height="55" viewBox="0 0 67 55" fill="none" xmlns="http://www.w3.org/2000/svg">
<path d="M60.2163 34.9805C60.2372 34.7764 60.3 34.5831 60.3 34.379C60.3 30.5878 57.2955 27.5054 53.6 27.5054C52.2809 27.5054 51.0666 27.9135 50.0302 28.5794C48.1877 24.4122 44.1153 21.4909 39.3625 21.4909C32.8928 21.4909 27.6375 26.8717 27.6375 33.5198C27.6375 33.842 27.7108 34.1428 27.7317 34.4542C22.5392 34.8516 18.425 39.255 18.425 44.6895C18.425 50.3818 22.9266 55 28.475 55H56.95C62.4984 55 67 50.3818 67 44.6895C67 40.1679 64.1525 36.3767 60.2163 34.9805ZM15.1587 32.5532C10.5839 27.8598 10.5839 20.2343 15.1587 15.5517C19.7336 10.8582 27.1664 10.8582 31.7413 15.5517C32.7567 16.5934 33.5105 17.7963 34.0758 19.0637C35.1017 18.6663 36.18 18.4193 37.2897 18.2582L40.4094 8.71021C40.8281 7.43214 39.6452 6.22925 38.3994 6.64812L29.2078 9.79496L24.8633 0.902168C24.2875 -0.300723 22.6125 -0.300723 22.0262 0.902168L17.6922 9.79496L8.49016 6.64812C7.25484 6.22925 6.07188 7.44288 6.48016 8.71021L9.5475 18.14L0.879375 22.5972C-0.293125 23.1986 -0.293125 24.9063 0.879375 25.5077L9.5475 29.9541L6.48016 39.3839C6.06141 40.662 7.24437 41.8649 8.49016 41.446L16.4569 38.7288C17.0955 37.397 17.9225 36.1834 18.9275 35.1308C17.5561 34.5509 16.2684 33.6917 15.1587 32.5532ZM14.6562 24.0471C14.6562 28.429 17.7236 32.0807 21.7645 32.8862C22.602 32.3814 23.4709 31.941 24.4027 31.6296C24.968 26.8717 27.648 22.769 31.4586 20.3525C30.0767 17.2271 27.0094 15.0361 23.45 15.0361C18.603 15.0361 14.6562 19.0744 14.6562 24.0471Z" fill="black"/>
</svg>
